<svg width="402" height="74" viewBox="0 0 402 74" fill="none" xmlns="http://www.w3.org/2000/svg">
<g clip-path="url(#clip0)">
<path d="M52.2 41.81C56.336 41.81 60.3792 40.5834 63.818 38.2853C67.2569 35.9873 69.9369 32.721 71.5193 28.8996C73.1016 25.0782 73.5151 20.8734 72.7075 16.817C71.8999 12.7606 69.9074 9.03478 66.9821 6.11086C64.0567 3.18694 60.33 1.19625 56.2732 0.390561C52.2164 -0.415126 48.0118 0.000388384 44.1912 1.58455C40.3705 3.16871 37.1055 5.85036 34.8091 9.2903C32.5127 12.7303 31.288 16.774 31.29 20.91C31.29 23.6555 31.8309 26.374 32.8819 28.9104C33.9328 31.4468 35.4732 33.7512 37.415 35.6921C39.3568 37.6329 41.662 39.1722 44.1988 40.222C46.7357 41.2717 49.4545 41.8113 52.2 41.81Z" fill="#FFCD00"/>
<path d="M52.33 52.26H52.26C45.2877 52.2582 38.5146 49.9345 33.0098 45.6556C27.505 41.3767 23.582 35.3863 21.86 28.63C20.81 24.45 17.41 20.91 13.1 20.91H0C0 34.7702 5.50595 48.0627 15.3066 57.8634C25.1073 67.6641 38.3998 73.17 52.26 73.17H52.33V52.26Z" fill="#00ECBB"/>
<path d="M52.2 52.26H52.26C59.2327 52.26 66.0066 49.9369 71.5118 45.6577C77.017 41.3785 80.9396 35.3871 82.66 28.63C83.72 24.45 87.12 20.91 91.43 20.91H104.53C104.527 34.7711 99.0192 48.0636 89.2169 57.864C79.4147 67.6644 66.1211 73.17 52.26 73.17H52.2V52.26Z" fill="#AF64FF"/>
<path d="M89.22 57.86C84.3672 62.7133 78.6058 66.5631 72.2651 69.1897C65.9243 71.8163 59.1283 73.1682 52.265 73.1682C45.4017 73.1682 38.6057 71.8163 32.2649 69.1897C25.9241 66.5631 20.1628 62.7133 15.31 57.86L30.09 43.08C35.9724 48.9588 43.9486 52.2611 52.265 52.2611C60.5814 52.2611 68.5575 48.9588 74.44 43.08L89.22 57.86Z" fill="#7131FF"/>
<path fill-rule="evenodd" clip-rule="evenodd" d="M364.86 19.86H370.61V44.34H364.86V19.86ZM367.76 15.86C366.789 15.8823 365.849 15.5233 365.14 14.86C364.797 14.5477 364.526 14.1657 364.343 13.7397C364.16 13.3137 364.07 12.8535 364.08 12.39C364.074 11.9388 364.166 11.4915 364.349 11.079C364.531 10.6665 364.801 10.2984 365.14 10C365.489 9.66881 365.9 9.40996 366.35 9.23834C366.8 9.06672 367.279 8.98572 367.76 9C368.73 8.98299 369.668 9.34127 370.38 10C370.719 10.2872 370.99 10.6461 371.173 11.0508C371.356 11.4555 371.448 11.8958 371.44 12.34C371.448 12.818 371.358 13.2925 371.175 13.7344C370.993 14.1763 370.722 14.5764 370.38 14.91C370.027 15.2311 369.613 15.4779 369.163 15.636C368.713 15.794 368.236 15.86 367.76 15.83V15.86ZM356.39 44.66C355.888 44.6711 355.39 44.5799 354.925 44.3919C354.46 44.2038 354.038 43.9229 353.685 43.5663C353.332 43.2097 353.056 42.7849 352.873 42.3179C352.69 41.8509 352.604 41.3514 352.62 40.85C352.602 40.3438 352.686 39.8391 352.869 39.3665C353.051 38.8939 353.327 38.463 353.68 38.1C354.04 37.7553 354.465 37.4851 354.93 37.3049C355.395 37.1247 355.891 37.0381 356.39 37.05C356.891 37.0375 357.389 37.1274 357.854 37.3143C358.319 37.5013 358.741 37.7812 359.094 38.137C359.447 38.4928 359.724 38.917 359.907 39.3835C360.09 39.85 360.177 40.3491 360.16 40.85C360.178 41.3518 360.093 41.8519 359.91 42.3196C359.728 42.7873 359.451 43.2127 359.098 43.5695C358.745 43.9264 358.323 44.2073 357.857 44.3948C357.391 44.5824 356.892 44.6726 356.39 44.66V44.66ZM381.56 43.06C383.65 44.1101 385.956 44.657 388.295 44.657C390.634 44.657 392.94 44.1101 395.03 43.06C396.965 42.0397 398.576 40.4982 399.68 38.61C400.824 36.6333 401.411 34.3837 401.38 32.1C401.417 29.8314 400.829 27.5965 399.68 25.64C398.57 23.7456 396.948 22.2031 395 21.19C392.91 20.1399 390.604 19.593 388.265 19.593C385.926 19.593 383.62 20.1399 381.53 21.19C379.586 22.2117 377.962 23.7519 376.84 25.64C375.713 27.6038 375.14 29.8362 375.18 32.1C375.145 34.379 375.718 36.6261 376.84 38.61C377.975 40.4985 379.608 42.0381 381.56 43.06V43.06ZM393.51 37.65C392.098 38.9973 390.222 39.7491 388.27 39.7491C386.318 39.7491 384.442 38.9973 383.03 37.65C382.348 36.9021 381.82 36.0268 381.477 35.0744C381.133 34.122 380.982 33.1112 381.03 32.1C380.982 31.0888 381.133 30.078 381.477 29.1256C381.82 28.1732 382.348 27.2979 383.03 26.55C384.438 25.1958 386.316 24.4394 388.27 24.4394C390.224 24.4394 392.102 25.1958 393.51 26.55C394.209 27.2891 394.753 28.1613 395.109 29.1147C395.464 30.0682 395.625 31.0834 395.58 32.1C395.625 33.1166 395.464 34.1318 395.109 35.0853C394.753 36.0387 394.209 36.9109 393.51 37.65V37.65ZM231 43C230.271 43.5777 229.43 43.9966 228.53 44.23C227.554 44.5057 226.544 44.6437 225.53 44.64C223.264 44.7862 221.032 44.0315 219.32 42.54C218.55 41.7323 217.957 40.7723 217.58 39.7217C217.202 38.6712 217.049 37.5533 217.13 36.44V14.65H222.83V20.2H229.36V24.76H222.83V36.33C222.766 37.3171 223.077 38.2919 223.7 39.06C224.032 39.3782 224.427 39.6235 224.859 39.7802C225.291 39.9369 225.751 40.0015 226.21 39.97C227.359 40.0092 228.488 39.6566 229.41 38.97L231 43ZM148.61 44.64C146.247 44.6776 143.911 44.1315 141.81 43.05C139.863 42.0423 138.235 40.5117 137.11 38.63C135.968 36.6674 135.384 34.4303 135.42 32.16C135.38 29.905 135.965 27.6828 137.11 25.74C138.224 23.8671 139.833 22.3377 141.76 21.32C143.878 20.234 146.231 19.6878 148.61 19.73C150.799 19.6817 152.965 20.1837 154.91 21.19C156.689 22.1185 158.123 23.5944 159 25.4L154.65 28C154.021 26.9178 153.103 26.0315 152 25.44C150.949 24.8645 149.768 24.5684 148.57 24.58C147.592 24.5491 146.619 24.7186 145.709 25.078C144.799 25.4374 143.973 25.9792 143.28 26.67C142.569 27.3937 142.015 28.2569 141.653 29.2052C141.292 30.1535 141.131 31.1664 141.18 32.18C141.125 33.1934 141.274 34.2074 141.618 35.1623C141.961 36.1172 142.492 36.9937 143.18 37.74C144.348 38.8216 145.818 39.5217 147.393 39.7468C148.969 39.9719 150.576 39.7114 152 39C153.09 38.3948 154.003 37.5159 154.65 36.45L159 39C158.076 40.7969 156.629 42.2717 154.85 43.23C152.925 44.2177 150.783 44.7093 148.62 44.66L148.61 44.64ZM195.61 43.87C197.501 44.3813 199.451 44.6402 201.41 44.64C204.82 44.64 207.52 43.96 209.49 42.64C210.418 42.0651 211.181 41.2604 211.707 40.3039C212.232 39.3474 212.502 38.2713 212.49 37.18C212.58 35.718 212.088 34.2798 211.12 33.18C210.246 32.2505 209.147 31.5617 207.93 31.18C206.356 30.7307 204.752 30.3965 203.13 30.18C201.661 29.9158 200.219 29.5209 198.82 29C198.404 28.8626 198.045 28.5925 197.797 28.2312C197.55 27.8699 197.428 27.4374 197.45 27C197.449 26.5802 197.568 26.1688 197.793 25.8144C198.018 25.4601 198.34 25.1775 198.72 25C199.914 24.4209 201.235 24.1559 202.56 24.23C205.015 24.1917 207.434 24.8208 209.56 26.05L211.76 21.72C210.476 21.0102 209.089 20.5042 207.65 20.22C206.011 19.8339 204.334 19.6359 202.65 19.63C199.879 19.4896 197.134 20.2205 194.8 21.72C193.895 22.3212 193.157 23.1418 192.655 24.1054C192.153 25.0689 191.904 26.1439 191.93 27.23C191.839 28.736 192.325 30.22 193.29 31.38C194.207 32.3046 195.337 32.9911 196.58 33.38C198.197 33.8434 199.844 34.1943 201.51 34.43C202.924 34.6123 204.317 34.9304 205.67 35.38C206.056 35.4885 206.395 35.7222 206.634 36.0444C206.873 36.3666 206.998 36.759 206.99 37.16C206.99 38.9533 205.287 39.8467 201.88 39.84C200.336 39.8324 198.799 39.6205 197.31 39.21C195.923 38.8132 194.602 38.2134 193.39 37.43L191.2 41.76C192.555 42.7178 194.063 43.4381 195.66 43.89L195.61 43.87ZM239.14 43.05C241.215 44.0954 243.506 44.6399 245.83 44.6399C248.154 44.6399 250.445 44.0954 252.52 43.05C254.437 42.0336 256.034 40.503 257.13 38.63C258.267 36.6655 258.851 34.4297 258.82 32.16C258.855 29.9056 258.271 27.6849 257.13 25.74C256.034 23.867 254.437 22.3364 252.52 21.32C250.445 20.2746 248.154 19.7301 245.83 19.7301C243.506 19.7301 241.215 20.2746 239.14 21.32C237.214 22.3425 235.603 23.8706 234.48 25.74C233.369 27.6948 232.803 29.9118 232.84 32.16C232.806 34.4236 233.372 36.6558 234.48 38.63C235.614 40.5135 237.243 42.0494 239.19 43.07L239.14 43.05ZM251.01 37.67C249.612 39.0174 247.746 39.7702 245.805 39.7702C243.864 39.7702 241.998 39.0174 240.6 37.67C239.919 36.9294 239.391 36.0611 239.048 35.1153C238.705 34.1695 238.553 33.165 238.6 32.16C238.554 31.1551 238.707 30.1509 239.05 29.2053C239.393 28.2596 239.92 27.3912 240.6 26.65C242.001 25.3095 243.866 24.5614 245.805 24.5614C247.744 24.5614 249.609 25.3095 251.01 26.65C251.704 27.384 252.243 28.2501 252.595 29.1967C252.947 30.1433 253.105 31.151 253.06 32.16C253.116 33.1689 252.967 34.1787 252.624 35.1289C252.28 36.0791 251.748 36.9502 251.06 37.69L251.01 37.67ZM295.01 19.73C296.347 19.6608 297.684 19.8635 298.941 20.3259C300.197 20.7882 301.347 21.5006 302.32 22.42C304.11 24.18 305.01 26.83 305.01 30.42V44.34H299.3V31.13C299.459 29.4319 298.997 27.7336 298 26.35C297.488 25.7912 296.858 25.3539 296.156 25.0701C295.453 24.7863 294.696 24.6633 293.94 24.71C293.078 24.6735 292.218 24.8265 291.422 25.1582C290.625 25.4899 289.911 25.9923 289.33 26.63C288.069 28.1247 287.435 30.0487 287.56 32V44.34H281.85V31.13C281.978 29.4181 281.476 27.7185 280.44 26.35C279.928 25.7917 279.298 25.3548 278.595 25.0711C277.893 24.7874 277.136 24.664 276.38 24.71C275.515 24.6719 274.652 24.819 273.848 25.1415C273.044 25.464 272.319 25.9544 271.72 26.58C270.486 28.1063 269.872 30.0414 270 32V44.34H264.29V30.73C264.29 23.91 269.46 19.73 276.21 19.73C278.369 19.7014 280.516 20.0569 282.55 20.78C283.954 21.4157 285.132 22.4616 285.93 23.78C286.957 22.4758 288.289 21.4453 289.81 20.78C291.473 20.0544 293.276 19.7028 295.09 19.75L295.01 19.73ZM335.43 34C335.49 33.2733 335.52 32.7133 335.52 32.32C335.57 30.0322 335.022 27.7709 333.93 25.76C332.93 23.8896 331.404 22.353 329.54 21.34C327.604 20.2589 325.417 19.7102 323.2 19.75C320.936 19.7142 318.701 20.2617 316.71 21.34C314.82 22.3815 313.258 23.9295 312.2 25.81C311.115 27.7553 310.563 29.9528 310.6 32.18C310.561 34.4441 311.128 36.6776 312.24 38.65C313.382 40.5396 315.031 42.071 317 43.07C318.979 44.0066 321.124 44.541 323.311 44.6423C325.498 44.7436 327.683 44.4097 329.74 43.66C331.353 43.0234 332.78 41.9918 333.89 40.66L330.83 37.15C329.968 38.0229 328.935 38.7081 327.796 39.1624C326.657 39.6168 325.436 39.8304 324.21 39.79C322.326 39.8575 320.47 39.3138 318.92 38.24C317.539 37.212 316.601 35.6955 316.3 34H335.43ZM318.54 25.94C319.84 24.8403 321.498 24.2566 323.2 24.3C324.9 24.2466 326.559 24.8317 327.85 25.94C329.103 27.0385 329.902 28.5644 330.09 30.22H316.26C316.462 28.5596 317.275 27.0338 318.54 25.94V25.94ZM355.11 19.75V25.17C354.675 25.084 354.233 25.0372 353.79 25.03C352.83 24.9797 351.87 25.1317 350.972 25.4763C350.075 25.8208 349.26 26.3502 348.58 27.03C347.245 28.5623 346.572 30.5621 346.71 32.59V44.34H341V32.08C341 23.19 346.71 18.64 355.11 19.75V19.75ZM175.11 44.66C171.85 44.66 168.38 43.76 166.5 41.97C164.62 40.18 163.71 37.46 163.71 33.91V20H169.42V33.14C169.286 34.9037 169.806 36.655 170.88 38.06C172.053 39.0841 173.558 39.6484 175.115 39.6484C176.672 39.6484 178.177 39.0841 179.35 38.06C180.42 36.6529 180.939 34.9032 180.81 33.14V20H186.52V33.91C186.52 37.4633 185.59 40.15 183.73 41.97C181.83 43.76 178.34 44.66 175.09 44.66H175.11Z" fill="#2F326A"/>
</g>
<defs>
<clipPath id="clip0">
<rect width="401.38" height="73.17" fill="white"/>
</clipPath>
</defs>
</svg>
