<svg width="108" height="108" viewBox="0 0 108 108" fill="none" xmlns="http://www.w3.org/2000/svg">
<path d="M54.2 58.82C58.336 58.82 62.3792 57.5934 65.818 55.2953C69.2569 52.9973 71.9369 49.731 73.5193 45.9096C75.1016 42.0882 75.5151 37.8834 74.7075 33.827C73.8999 29.7706 71.9074 26.0448 68.9821 23.1209C66.0567 20.197 62.33 18.2063 58.2732 17.4006C54.2164 16.5949 50.0118 17.0104 46.1912 18.5946C42.3705 20.1787 39.1055 22.8604 36.8091 26.3003C34.5127 29.7403 33.288 33.784 33.29 37.92C33.29 40.6655 33.8309 43.384 34.8819 45.9204C35.9328 48.4568 37.4732 50.7612 39.415 52.7021C41.3568 54.643 43.662 56.1822 46.1988 57.232C48.7357 58.2817 51.4545 58.8213 54.2 58.82Z" fill="#FFCD00"/>
<path d="M54.33 69.27H54.26C47.2877 69.2682 40.5146 66.9445 35.0098 62.6656C29.505 58.3867 25.582 52.3963 23.86 45.64C22.81 41.46 19.41 37.92 15.1 37.92H2C2 51.7802 7.50595 65.0728 17.3066 74.8734C27.1073 84.6741 40.3998 90.18 54.26 90.18H54.33V69.27Z" fill="#00ECBB"/>
<path d="M54.2 69.27H54.26C61.2327 69.27 68.0066 66.9469 73.5118 62.6677C79.017 58.3885 82.9396 52.3971 84.66 45.64C85.72 41.46 89.12 37.92 93.43 37.92H106.53C106.527 51.7811 101.019 65.0737 91.2169 74.874C81.4147 84.6744 68.1211 90.18 54.26 90.18H54.2V69.27Z" fill="#AF64FF"/>
<path d="M91.22 74.87C86.3672 79.7233 80.6058 83.5731 74.2651 86.1997C67.9243 88.8263 61.1283 90.1782 54.265 90.1782C47.4017 90.1782 40.6057 88.8263 34.2649 86.1997C27.9241 83.5731 22.1628 79.7233 17.31 74.87L32.09 60.09C37.9724 65.9688 45.9486 69.2711 54.265 69.2711C62.5814 69.2711 70.5575 65.9688 76.44 60.09L91.22 74.87Z" fill="#7131FF"/>
</svg>
